<mxfile host="65bd71144e" scale="1" border="10">
    <diagram id="DRfSf4asDnBnJwbS8WSl" name="Page-1">
        <mxGraphModel dx="984" dy="670" grid="1" gridSize="10" guides="1" tooltips="1" connect="1" arrows="1" fold="1" page="1" pageScale="1" pageWidth="1100" pageHeight="850" background="#FFFFFF" math="0" shadow="0">
            <root>
                <mxCell id="0"/>
                <mxCell id="1" parent="0"/>
                <mxCell id="4" value="&amp;lt;&amp;lt;abstract&amp;gt;&amp;gt;&lt;br&gt;&lt;b&gt;TwitterSource&lt;/b&gt;" style="swimlane;fontStyle=0;align=center;verticalAlign=top;childLayout=stackLayout;horizontal=1;startSize=55;horizontalStack=0;resizeParent=1;resizeParentMax=0;resizeLast=0;collapsible=0;marginBottom=0;html=1;fontColor=#333333;labelBackgroundColor=none;labelBorderColor=none;fillColor=#f5f5f5;strokeColor=#000000;strokeWidth=1;" parent="1" vertex="1">
                    <mxGeometry x="430" y="150" width="240" height="195" as="geometry"/>
                </mxCell>
                <mxCell id="6" value="# doLogging: boolean&lt;br&gt;# terms: HashSet&amp;lt;String&amp;gt;&lt;br&gt;" style="text;html=1;strokeColor=#000000;fillColor=#f5f5f5;align=left;verticalAlign=middle;spacingLeft=4;spacingRight=4;overflow=hidden;rotatable=0;points=[[0,0.5],[1,0.5]];portConstraint=eastwest;fontColor=#333333;labelBackgroundColor=none;labelBorderColor=none;strokeWidth=1;" parent="4" vertex="1">
                    <mxGeometry y="55" width="240" height="55" as="geometry"/>
                </mxCell>
                <mxCell id="9" value="" style="line;strokeWidth=1;fillColor=#f5f5f5;align=left;verticalAlign=middle;spacingTop=-1;spacingLeft=3;spacingRight=3;rotatable=0;labelPosition=right;points=[];portConstraint=eastwest;fontColor=#333333;labelBackgroundColor=none;labelBorderColor=none;strokeColor=#000000;" parent="4" vertex="1">
                    <mxGeometry y="110" width="240" height="8" as="geometry"/>
                </mxCell>
                <mxCell id="11" value="# sync(): void&lt;br&gt;# log(Status): void&lt;br&gt;+ setFilterTerms(Collection&amp;lt;String&amp;gt;): void&lt;br&gt;+ getFilterTerms(): List&amp;lt;String&amp;gt;&lt;br&gt;# handleTweet(Status): void" style="text;html=1;strokeColor=#000000;fillColor=#f5f5f5;align=left;verticalAlign=middle;spacingLeft=4;spacingRight=4;overflow=hidden;rotatable=0;points=[[0,0.5],[1,0.5]];portConstraint=eastwest;fontColor=#333333;labelBackgroundColor=none;labelBorderColor=none;strokeWidth=1;" parent="4" vertex="1">
                    <mxGeometry y="118" width="240" height="77" as="geometry"/>
                </mxCell>
                <mxCell id="21" value="LiveTwitterSource" style="swimlane;fontStyle=0;align=center;verticalAlign=top;childLayout=stackLayout;horizontal=1;startSize=55;horizontalStack=0;resizeParent=1;resizeParentMax=0;resizeLast=0;collapsible=0;marginBottom=0;html=1;fontColor=#333333;labelBackgroundColor=none;labelBorderColor=none;fillColor=#f5f5f5;strokeColor=#000000;strokeWidth=1;" parent="1" vertex="1">
                    <mxGeometry x="300" y="480" width="180" height="195" as="geometry"/>
                </mxCell>
                <mxCell id="23" value="- twitterStream: TwitterStream&lt;br&gt;- listerner: StatusListener" style="text;html=1;align=left;verticalAlign=middle;spacingLeft=4;spacingRight=4;overflow=hidden;rotatable=0;points=[[0,0.5],[1,0.5]];portConstraint=eastwest;fontColor=#333333;labelBackgroundColor=none;labelBorderColor=none;fillColor=#f5f5f5;strokeColor=#000000;strokeWidth=1;" parent="21" vertex="1">
                    <mxGeometry y="55" width="180" height="55" as="geometry"/>
                </mxCell>
                <mxCell id="26" value="" style="line;strokeWidth=1;fillColor=#f5f5f5;align=left;verticalAlign=middle;spacingTop=-1;spacingLeft=3;spacingRight=3;rotatable=0;labelPosition=right;points=[];portConstraint=eastwest;fontColor=#333333;labelBackgroundColor=none;labelBorderColor=none;strokeColor=#000000;" parent="21" vertex="1">
                    <mxGeometry y="110" width="180" height="8" as="geometry"/>
                </mxCell>
                <mxCell id="28" value="+ LiveTwitterSource()&lt;br&gt;# sync(): void&lt;br&gt;- initializeListener(): void&lt;br&gt;-initializeTwitterStream(): void" style="text;html=1;strokeColor=#000000;fillColor=#f5f5f5;align=left;verticalAlign=middle;spacingLeft=4;spacingRight=4;overflow=hidden;rotatable=0;points=[[0,0.5],[1,0.5]];portConstraint=eastwest;fontColor=#333333;labelBackgroundColor=none;labelBorderColor=none;strokeWidth=1;" parent="21" vertex="1">
                    <mxGeometry y="118" width="180" height="77" as="geometry"/>
                </mxCell>
                <mxCell id="29" value="PlaybackTwitterSource" style="swimlane;fontStyle=0;align=center;verticalAlign=top;childLayout=stackLayout;horizontal=1;startSize=55;horizontalStack=0;resizeParent=1;resizeParentMax=0;resizeLast=0;collapsible=0;marginBottom=0;html=1;fontColor=#333333;labelBackgroundColor=none;labelBorderColor=none;fillColor=#f5f5f5;strokeColor=#000000;strokeWidth=1;" parent="1" vertex="1">
                    <mxGeometry x="670" y="480" width="190" height="250" as="geometry"/>
                </mxCell>
                <mxCell id="31" value="- speedup: double&lt;br&gt;- source: ObjectSource&lt;br&gt;- threadStrarted: boolean" style="text;html=1;strokeColor=#000000;fillColor=#f5f5f5;align=left;verticalAlign=middle;spacingLeft=4;spacingRight=4;overflow=hidden;rotatable=0;points=[[0,0.5],[1,0.5]];portConstraint=eastwest;fontColor=#333333;labelBackgroundColor=none;labelBorderColor=none;strokeWidth=1;" parent="29" vertex="1">
                    <mxGeometry y="55" width="190" height="55" as="geometry"/>
                </mxCell>
                <mxCell id="34" value="" style="line;strokeWidth=1;fillColor=#000000;align=left;verticalAlign=middle;spacingTop=-1;spacingLeft=3;spacingRight=3;rotatable=0;labelPosition=right;points=[];portConstraint=eastwest;fontColor=#333333;labelBackgroundColor=none;labelBorderColor=none;strokeColor=#000000;gradientColor=none;" parent="29" vertex="1">
                    <mxGeometry y="110" width="190" height="8" as="geometry"/>
                </mxCell>
                <mxCell id="39" value="+ PlaybackTwitterSource(double)&lt;br&gt;- startThread(): void&lt;br&gt;+ run(): void&lt;br&gt;- computePlaybackTime(long):Long&lt;br&gt;- pause(long): void&lt;br&gt;# sync(): void" style="text;html=1;strokeColor=#000000;fillColor=#f5f5f5;align=left;verticalAlign=middle;spacingLeft=4;spacingRight=4;overflow=hidden;rotatable=0;points=[[0,0.5],[1,0.5]];portConstraint=eastwest;fontColor=#333333;labelBackgroundColor=none;labelBorderColor=none;strokeWidth=1;" vertex="1" parent="29">
                    <mxGeometry y="118" width="190" height="132" as="geometry"/>
                </mxCell>
                <mxCell id="37" style="edgeStyle=none;html=1;entryX=0.4;entryY=1.03;entryDx=0;entryDy=0;entryPerimeter=0;startArrow=none;fontColor=#000000;labelBackgroundColor=none;labelBorderColor=none;fillColor=#f5f5f5;strokeColor=#000000;strokeWidth=1;" edge="1" parent="1" source="41" target="11">
                    <mxGeometry relative="1" as="geometry">
                        <Array as="points">
                            <mxPoint x="390" y="400"/>
                            <mxPoint x="526" y="400"/>
                        </Array>
                    </mxGeometry>
                </mxCell>
                <mxCell id="38" style="edgeStyle=none;html=1;entryX=0.7;entryY=1.022;entryDx=0;entryDy=0;entryPerimeter=0;exitX=0.446;exitY=0;exitDx=0;exitDy=0;exitPerimeter=0;fontColor=#000000;labelBackgroundColor=none;labelBorderColor=none;fillColor=#f5f5f5;strokeColor=#000000;strokeWidth=1;" edge="1" parent="1" source="29" target="11">
                    <mxGeometry relative="1" as="geometry">
                        <mxPoint x="760" y="400" as="sourcePoint"/>
                        <Array as="points">
                            <mxPoint x="755" y="400"/>
                            <mxPoint x="598" y="400"/>
                        </Array>
                    </mxGeometry>
                </mxCell>
                <mxCell id="41" value="" style="rhombus;fontColor=#333333;labelBackgroundColor=none;labelBorderColor=none;fillColor=#f5f5f5;strokeColor=#000000;strokeWidth=1;" vertex="1" parent="1">
                    <mxGeometry x="380" y="460" width="20" height="20" as="geometry"/>
                </mxCell>
                <mxCell id="44" value="" style="edgeStyle=none;html=1;entryX=0.4;entryY=1.03;entryDx=0;entryDy=0;entryPerimeter=0;endArrow=none;fontColor=#000000;labelBackgroundColor=none;labelBorderColor=none;fillColor=#f5f5f5;strokeColor=#000000;strokeWidth=1;" edge="1" parent="1" source="21" target="41">
                    <mxGeometry relative="1" as="geometry">
                        <mxPoint x="390" y="480" as="sourcePoint"/>
                        <mxPoint x="526" y="347.30999999999995" as="targetPoint"/>
                        <Array as="points"/>
                    </mxGeometry>
                </mxCell>
                <mxCell id="48" value="1" style="text;html=1;align=center;verticalAlign=middle;resizable=0;points=[];autosize=1;strokeColor=none;fillColor=none;fontColor=#333333;labelBackgroundColor=none;labelBorderColor=none;strokeWidth=1;" vertex="1" parent="1">
                    <mxGeometry x="503" y="345" width="20" height="20" as="geometry"/>
                </mxCell>
            </root>
        </mxGraphModel>
    </diagram>
</mxfile>